<svg xmlns="http://www.w3.org/2000/svg" viewBox="0 0 212 59.64"><defs><style>.cls-1{fill:#283583;}.cls-2{fill:#009fe3;}.cls-3{fill:#f7a600;}.cls-4{fill:#d3d800;}</style></defs><title>artclub_1</title><g id="Laag_2" data-name="Laag 2"><g id="Laag_1-2" data-name="Laag 1"><path class="cls-1" d="M21,4.05c-.46.92-1,1.88-1.55,2.88s-1.19,2-1.85,3-1.35,1.92-2.07,2.84-1.44,1.75-2.15,2.5a24,24,0,0,1,2.71,3.36,43.59,43.59,0,0,1,2.33,3.87q1.06,2,2,4.18c.62,1.44,1.18,2.86,1.7,4.26H15.06a1.39,1.39,0,0,1-1.23-.58A6.79,6.79,0,0,1,13.12,29c-.23-.55-.52-1.23-.86-2.07s-.75-1.71-1.21-2.63-1-1.85-1.55-2.82a27.78,27.78,0,0,0-1.85-2.73V30.92H1.79Q.2,30.92.2,29.42V1.08H6.05c1.07,0,1.6.5,1.6,1.5V12.66a35.54,35.54,0,0,0,3.66-5.45c1.06-1.93,2-4,3-6.13h6a1.29,1.29,0,0,1,.95.34,1.22,1.22,0,0,1,.34.91,2.61,2.61,0,0,1-.11.71A5.78,5.78,0,0,1,21,4.05Z"/><path class="cls-1" d="M25.13,1.59c1.61-.31,3.21-.55,4.81-.71s3-.23,4.33-.23a20.39,20.39,0,0,1,4.3.41,8.81,8.81,0,0,1,3.3,1.37A6.5,6.5,0,0,1,44,5a9.26,9.26,0,0,1,.73,3.86,7.82,7.82,0,0,1-.93,4,7.31,7.31,0,0,1-3.12,2.72A9,9,0,0,1,43.05,17a6.19,6.19,0,0,1,1.47,1.76,7.21,7.21,0,0,1,.71,2,11,11,0,0,1,.19,2.06,9,9,0,0,1-.77,4,6.69,6.69,0,0,1-2.12,2.49,8.08,8.08,0,0,1-3.14,1.32,19.91,19.91,0,0,1-3.88.36H26.73c-1.06,0-1.6-.5-1.6-1.5Zm7.24,11.46h2.24A3.27,3.27,0,0,0,37,12.34a4,4,0,0,0,.71-2.78A4,4,0,0,0,37,6.83a3.35,3.35,0,0,0-2.46-.71c-.28,0-.66,0-1.12,0s-.8,0-1,.06Zm0,12.58h2.5a3.43,3.43,0,0,0,2.65-.89,4.2,4.2,0,0,0,.79-2.86A3.91,3.91,0,0,0,37.43,19a4.29,4.29,0,0,0-3-.84H32.37Z"/><path class="cls-1" d="M60.24.52a15.72,15.72,0,0,1,2.9.26,8.9,8.9,0,0,1,2.31.68,2.14,2.14,0,0,1,1,.91,3.11,3.11,0,0,1,.26,1.38V6.93l-2.56-.15c-.85,0-1.78-.06-2.78-.06A6,6,0,0,0,59,7.13a3,3,0,0,0-1.47,1.42,8,8,0,0,0-.73,2.78,42.37,42.37,0,0,0-.19,4.48,41.47,41.47,0,0,0,.21,4.61,9.37,9.37,0,0,0,.74,2.88,3.11,3.11,0,0,0,1.35,1.51,4.41,4.41,0,0,0,2,.43c1,0,1.81,0,2.6-.09s1.43-.08,1.92-.08A1.37,1.37,0,0,1,67,26.62v3.53a18.9,18.9,0,0,1-3.21,1,22,22,0,0,1-4.37.37,12.4,12.4,0,0,1-4.35-.72,7.44,7.44,0,0,1-3.32-2.47,12.71,12.71,0,0,1-2.11-4.74A32.71,32.71,0,0,1,49,16a36.2,36.2,0,0,1,.63-7.36,11.81,11.81,0,0,1,2-4.78,7.41,7.41,0,0,1,3.51-2.59A15.47,15.47,0,0,1,60.24.52Z"/><path class="cls-2" d="M91.79,23.6h-6c-.17,1.32-.33,2.63-.47,3.92s-.24,2.43-.3,3.4H79.22a1.28,1.28,0,0,1-1-.38,1.84,1.84,0,0,1-.37-1.3,7.81,7.81,0,0,1,.05-.81,6.73,6.73,0,0,1,.12-.82Q79.22,20.55,80.68,14a119.29,119.29,0,0,1,3.71-13h7.79a1.46,1.46,0,0,1,1.21.43,3,3,0,0,1,.51.9,125.52,125.52,0,0,1,3.54,13.07q1.59,7.31,2.84,15.44h-6.2c-.92,0-1.45-.51-1.6-1.55Zm-3-17c-.6,2.41-1.09,4.54-1.44,6.4l-1,5.27h4.91q-.47-2.49-1-5.27T88.78,6.59Z"/><path class="cls-2" d="M115.18,8.44c1.12,0,1.68.5,1.68,1.51v5a3.78,3.78,0,0,0-.56,0h-.6a18,18,0,0,0-2.74.21,4.5,4.5,0,0,0-2.22.95v14.9h-5.59c-1.07,0-1.6-.5-1.6-1.5V8.57h4.14a2.14,2.14,0,0,1,1.33.32,3.2,3.2,0,0,1,.73,1.4l.35,1.17a6.69,6.69,0,0,1,2.24-2.22A5.47,5.47,0,0,1,115.18,8.44Z"/><path class="cls-2" d="M135.38,30.67a19,19,0,0,1-2.35.55,13.67,13.67,0,0,1-2.3.18,12.49,12.49,0,0,1-3.08-.35,5.49,5.49,0,0,1-2.33-1.22,5.66,5.66,0,0,1-1.48-2.37,11.5,11.5,0,0,1-.52-3.77V14.13h-.86c-1.06,0-1.59-.51-1.59-1.51v-4h2.71l.34-5.43h5c1.06,0,1.59.51,1.59,1.51V8.57h3.28c1.06,0,1.59.5,1.59,1.51v4.05h-4.87v9.43c0,1.52.68,2.28,2,2.28h1.25c1.06,0,1.59.5,1.59,1.51Z"/><path class="cls-2" d="M154,30.06a15.39,15.39,0,0,1-2.52,1,12.59,12.59,0,0,1-3.64.44q-5,0-7.24-2.78c-1.46-1.86-2.19-4.82-2.19-8.9s.71-7,2.15-8.93,3.76-2.83,7-2.83a16,16,0,0,1,3,.26,9,9,0,0,1,2.22.69,2.18,2.18,0,0,1,1,.91,3.09,3.09,0,0,1,.26,1.37v2.8c-.86-.08-1.73-.15-2.61-.19s-1.51-.06-1.91-.06a5.42,5.42,0,0,0-1.94.28,2.12,2.12,0,0,0-1.12.94,4.7,4.7,0,0,0-.52,1.77,23.64,23.64,0,0,0-.13,2.78,27.45,27.45,0,0,0,.13,3,5.44,5.44,0,0,0,.47,1.85,1.87,1.87,0,0,0,1,.93,4.55,4.55,0,0,0,1.64.26l.69,0c.29,0,.58,0,.88,0s.59,0,.87,0l.62,0a2.25,2.25,0,0,1,1.46.39,1.57,1.57,0,0,1,.48,1.29Z"/><path class="cls-2" d="M163.8,24.12a2.25,2.25,0,0,0,.26,1.23,1.54,1.54,0,0,0,1.12.45c.58.06.92.21,1,.47a3.27,3.27,0,0,1,.17,1.21v3.19c-.75.23-1.39.4-1.94.51a10.25,10.25,0,0,1-2.11.17A7.86,7.86,0,0,1,160,31a4.13,4.13,0,0,1-1.81-1.12A5.27,5.27,0,0,1,157,27.74a12.44,12.44,0,0,1-.41-3.45V0h5.6c1.06,0,1.59.5,1.59,1.51Z"/><path class="cls-2" d="M181.25,8.57h5.6c1.06,0,1.59.5,1.59,1.51V30.92h-4.13A2.06,2.06,0,0,1,183,30.6a3.21,3.21,0,0,1-.71-1.4l-.26-.77A10.13,10.13,0,0,1,179,30.75a7.76,7.76,0,0,1-3.38.69q-6.12,0-6.12-7.58V8.57h5.6c1.06,0,1.6.5,1.6,1.51V23.13a2.62,2.62,0,0,0,.43,1.66,1.92,1.92,0,0,0,1.59.54,4.57,4.57,0,0,0,1.33-.22,3,3,0,0,0,1.17-.65Z"/><path class="cls-2" d="M198.43,0c1.06,0,1.6.5,1.6,1.51V9.56a13.72,13.72,0,0,1,1.91-1,6.56,6.56,0,0,1,2.7-.48,7,7,0,0,1,2.84.59,5.59,5.59,0,0,1,2.34,2,10.74,10.74,0,0,1,1.6,3.68A23.86,23.86,0,0,1,212,20a22.22,22.22,0,0,1-.54,5.28,8.63,8.63,0,0,1-1.74,3.58,6.89,6.89,0,0,1-3.13,2,14.89,14.89,0,0,1-4.63.63,21.88,21.88,0,0,1-5-.5,14.63,14.63,0,0,1-3-.93,2.36,2.36,0,0,1-.84-.64,2.15,2.15,0,0,1-.37-1.38V0ZM200,26a10,10,0,0,0,1.63.13,4.79,4.79,0,0,0,1.4-.17,1.6,1.6,0,0,0,.95-.82,5.6,5.6,0,0,0,.54-1.87,26.71,26.71,0,0,0,.17-3.38,27.68,27.68,0,0,0-.15-3.19,6.6,6.6,0,0,0-.5-2,2,2,0,0,0-.88-1,2.89,2.89,0,0,0-1.36-.28,3.74,3.74,0,0,0-1.8.43Z"/><path class="cls-3" d="M4,37.39c.75,0,1.12.36,1.12,1.07v5.69a10.21,10.21,0,0,1,1.36-.73,4.69,4.69,0,0,1,1.9-.33,4.89,4.89,0,0,1,2,.41A4,4,0,0,1,12,44.9a7.46,7.46,0,0,1,1.13,2.6,16.71,16.71,0,0,1,.41,4,15.35,15.35,0,0,1-.38,3.73,5.94,5.94,0,0,1-1.23,2.53A4.8,4.8,0,0,1,9.72,59.2a10.73,10.73,0,0,1-3.27.44A15.68,15.68,0,0,1,3,59.29a10.89,10.89,0,0,1-2.1-.65,1.85,1.85,0,0,1-.59-.46,1.51,1.51,0,0,1-.26-1V37.39ZM5.08,55.78a7.55,7.55,0,0,0,1.16.09,3.26,3.26,0,0,0,1-.13,1.18,1.18,0,0,0,.67-.57,3.94,3.94,0,0,0,.38-1.33,18.39,18.39,0,0,0,.12-2.39,19.57,19.57,0,0,0-.11-2.25,4.74,4.74,0,0,0-.35-1.4,1.47,1.47,0,0,0-.62-.71,2.1,2.1,0,0,0-1-.2,2.74,2.74,0,0,0-1.28.3Z"/><path class="cls-3" d="M28.27,58.64a15.82,15.82,0,0,1-2.18.67,15,15,0,0,1-3.42.33,9.25,9.25,0,0,1-3.1-.46,4.93,4.93,0,0,1-2.18-1.46,6.34,6.34,0,0,1-1.28-2.57,15.3,15.3,0,0,1-.41-3.79Q15.7,47,17.36,45c1.11-1.29,2.83-1.93,5.19-1.93a7.65,7.65,0,0,1,3,.51A4.58,4.58,0,0,1,27.42,45a5.26,5.26,0,0,1,.91,2.13,13.92,13.92,0,0,1,.24,2.66c0,.2,0,.46,0,.76a9,9,0,0,1-.1.91c-.05.31-.11.6-.17.87a3.93,3.93,0,0,1-.18.63H20.42a2.69,2.69,0,0,0,.74,2.16,3.77,3.77,0,0,0,2.36.6c1,0,1.75,0,2.27,0s1-.05,1.35-.05a1.12,1.12,0,0,1,.87.29,1.18,1.18,0,0,1,.26.81Zm-4-8.62a6.05,6.05,0,0,0-.38-2.6,1.42,1.42,0,0,0-1.38-.71,1.67,1.67,0,0,0-1.63.76A6,6,0,0,0,20.42,50Z"/><path class="cls-3" d="M43.27,58.64a16.07,16.07,0,0,1-2.17.67,15.14,15.14,0,0,1-3.43.33,9.29,9.29,0,0,1-3.1-.46,5,5,0,0,1-2.18-1.46,6.33,6.33,0,0,1-1.27-2.57,14.8,14.8,0,0,1-.42-3.79c0-2.94.56-5,1.66-6.34s2.84-1.93,5.19-1.93a7.65,7.65,0,0,1,3,.51A4.58,4.58,0,0,1,42.42,45a5.13,5.13,0,0,1,.91,2.13,13.14,13.14,0,0,1,.25,2.66c0,.2,0,.46,0,.76a9,9,0,0,1-.11.91c0,.31-.11.6-.17.87a3.93,3.93,0,0,1-.18.63H35.42a2.66,2.66,0,0,0,.75,2.16,3.73,3.73,0,0,0,2.36.6c1,0,1.75,0,2.26,0s1-.05,1.36-.05a1.11,1.11,0,0,1,.86.29,1.13,1.13,0,0,1,.26.81Zm-4-8.62a6.21,6.21,0,0,0-.38-2.6,1.45,1.45,0,0,0-1.39-.71,1.68,1.68,0,0,0-1.63.76A6,6,0,0,0,35.42,50Z"/><path class="cls-3" d="M51.09,54.44a1.55,1.55,0,0,0,.18.86,1.07,1.07,0,0,0,.8.32c.4,0,.64.16.73.34a2.22,2.22,0,0,1,.12.85v2.25c-.53.16-1,.28-1.37.37a7.58,7.58,0,0,1-1.49.12,5.74,5.74,0,0,1-1.66-.23,2.85,2.85,0,0,1-1.28-.79A3.82,3.82,0,0,1,46.3,57,8.78,8.78,0,0,1,46,54.56V37.39h4c.75,0,1.12.36,1.12,1.07Z"/><path class="cls-3" d="M59.4,59.49a4.91,4.91,0,0,1-2-.41,3.78,3.78,0,0,1-1.55-1.36,7.39,7.39,0,0,1-1-2.49,16.59,16.59,0,0,1-.37-3.81q0-4.32,1.42-6.25a5.09,5.09,0,0,1,4.42-1.93,7.32,7.32,0,0,1,1.62.15,6.93,6.93,0,0,1,1,.3v-6.3h4c.75,0,1.12.36,1.12,1.07V59.24H65.09a1.5,1.5,0,0,1-1-.22,2.46,2.46,0,0,1-.5-1l-.18-.52a7,7,0,0,1-1.69,1.38A4.48,4.48,0,0,1,59.4,59.49ZM62.93,47a6.17,6.17,0,0,0-.64-.09l-.58,0a2.3,2.3,0,0,0-1.14.24,1.51,1.51,0,0,0-.62.75,4.13,4.13,0,0,0-.28,1.28c0,.51-.06,1.13-.06,1.84q0,1.31.06,2.16a5.08,5.08,0,0,0,.25,1.35,1.34,1.34,0,0,0,.51.72,1.68,1.68,0,0,0,.89.21,2.55,2.55,0,0,0,.91-.15,3.3,3.3,0,0,0,.7-.37Z"/><path class="cls-3" d="M83,58.64a15.62,15.62,0,0,1-2.17.67,15.14,15.14,0,0,1-3.43.33,9.29,9.29,0,0,1-3.1-.46,5,5,0,0,1-2.18-1.46,6.33,6.33,0,0,1-1.27-2.57,14.84,14.84,0,0,1-.41-3.79q0-4.41,1.65-6.34t5.19-1.93a7.65,7.65,0,0,1,3,.51A4.51,4.51,0,0,1,82.19,45a5.13,5.13,0,0,1,.91,2.13,13.14,13.14,0,0,1,.25,2.66c0,.2,0,.46,0,.76a9,9,0,0,1-.11.91c0,.31-.11.6-.17.87a3.93,3.93,0,0,1-.18.63H75.19a2.66,2.66,0,0,0,.75,2.16,3.73,3.73,0,0,0,2.36.6c1,0,1.75,0,2.26,0s1-.05,1.36-.05a1.11,1.11,0,0,1,.86.29,1.13,1.13,0,0,1,.26.81ZM79,50a6.21,6.21,0,0,0-.38-2.6,1.45,1.45,0,0,0-1.39-.71,1.68,1.68,0,0,0-1.63.76A6,6,0,0,0,75.19,50Z"/><path class="cls-3" d="M90.86,59.24h-4c-.75,0-1.13-.35-1.13-1.06V43.45H88.7a1.49,1.49,0,0,1,1,.23,2.32,2.32,0,0,1,.5,1l.19.55a7.22,7.22,0,0,1,2.08-1.65,5.57,5.57,0,0,1,2.39-.48q4.32,0,4.32,5.35v10.8h-4c-.76,0-1.13-.35-1.13-1.06V49a1.8,1.8,0,0,0-.31-1.17,1.34,1.34,0,0,0-1.12-.38,3.13,3.13,0,0,0-.94.15,2.21,2.21,0,0,0-.83.45Z"/><path class="cls-3" d="M106.54,59.49a4.91,4.91,0,0,1-2-.41A3.72,3.72,0,0,1,103,57.72a7.38,7.38,0,0,1-1-2.49,17.23,17.23,0,0,1-.36-3.81q0-4.32,1.41-6.25a5.11,5.11,0,0,1,4.43-1.93,6.83,6.83,0,0,1,2.62.45v-6.3h4c.75,0,1.13.36,1.13,1.07V59.24h-2.92a1.5,1.5,0,0,1-1-.22,2.46,2.46,0,0,1-.5-1l-.19-.52a6.79,6.79,0,0,1-1.69,1.38A4.41,4.41,0,0,1,106.54,59.49ZM110.07,47c-.21,0-.42-.07-.64-.09l-.58,0a2.25,2.25,0,0,0-1.14.24,1.52,1.52,0,0,0-.63.75,4.15,4.15,0,0,0-.27,1.28c0,.51-.06,1.13-.06,1.84q0,1.31.06,2.16a5.14,5.14,0,0,0,.24,1.35,1.35,1.35,0,0,0,.52.72,1.64,1.64,0,0,0,.88.21,2.61,2.61,0,0,0,.92-.15,3.57,3.57,0,0,0,.7-.37Z"/><path class="cls-3" d="M130.18,58.64a15.82,15.82,0,0,1-2.18.67,15,15,0,0,1-3.42.33,9.25,9.25,0,0,1-3.1-.46,4.93,4.93,0,0,1-2.18-1.46A6.34,6.34,0,0,1,118,55.15a15.3,15.3,0,0,1-.41-3.79q0-4.41,1.66-6.34c1.11-1.29,2.83-1.93,5.19-1.93a7.69,7.69,0,0,1,3,.51A4.58,4.58,0,0,1,129.33,45a5.26,5.26,0,0,1,.91,2.13,13.92,13.92,0,0,1,.24,2.66c0,.2,0,.46,0,.76a9,9,0,0,1-.1.91c0,.31-.11.6-.17.87A3.93,3.93,0,0,1,130,53h-7.67a2.69,2.69,0,0,0,.74,2.16,3.77,3.77,0,0,0,2.36.6c1,0,1.75,0,2.27,0s1-.05,1.35-.05a1.12,1.12,0,0,1,.87.29,1.18,1.18,0,0,1,.26.81Zm-4-8.62a6.05,6.05,0,0,0-.38-2.6,1.42,1.42,0,0,0-1.38-.71,1.67,1.67,0,0,0-1.63.76,6,6,0,0,0-.44,2.55Z"/><path class="cls-4" d="M141.11,37.39h4c.75,0,1.12.36,1.12,1.07V49.6a18.83,18.83,0,0,0,2.15-3.31c.52-1,1-2,1.32-2.84h3.93a1,1,0,0,1,.64.21.82.82,0,0,1,.27.67,2.2,2.2,0,0,1-.12.63,3.61,3.61,0,0,1-.43.86c-.42.71-.95,1.53-1.58,2.44s-1.28,1.76-2,2.55a24.17,24.17,0,0,1,2.51,3.53,30.79,30.79,0,0,1,2.3,4.9h-4.5a1.26,1.26,0,0,1-1-.35,3.11,3.11,0,0,1-.51-.86c-.23-.55-.44-1.06-.66-1.54s-.43-.94-.67-1.4-.48-.92-.76-1.4-.58-1-.93-1.54v7.09h-3.95c-.75,0-1.13-.35-1.13-1.06Z"/><path class="cls-4" d="M165.18,43.45h4c.75,0,1.12.36,1.12,1.07V59.24h-2.92a1.49,1.49,0,0,1-1-.22,2.44,2.44,0,0,1-.51-1l-.18-.55a7,7,0,0,1-2.08,1.64,5.43,5.43,0,0,1-2.39.49q-4.32,0-4.32-5.36V43.45h4c.75,0,1.13.36,1.13,1.07v9.22a1.9,1.9,0,0,0,.3,1.17,1.41,1.41,0,0,0,1.13.38,3.17,3.17,0,0,0,.94-.15,2.25,2.25,0,0,0,.82-.46Z"/><path class="cls-4" d="M178.12,59.24h-4c-.75,0-1.13-.35-1.13-1.06V43.45H176a1.48,1.48,0,0,1,.95.23,2.31,2.31,0,0,1,.51,1l.18.55a7.22,7.22,0,0,1,2.08-1.65,5.57,5.57,0,0,1,2.39-.48q4.32,0,4.32,5.35v10.8h-3.95c-.75,0-1.13-.35-1.13-1.06V49a1.86,1.86,0,0,0-.3-1.17,1.37,1.37,0,0,0-1.13-.38,3.17,3.17,0,0,0-.94.15,2.1,2.1,0,0,0-.82.45Z"/><path class="cls-4" d="M188.76,55.41l2.47.15q1.19.06,2.07.06a4.89,4.89,0,0,0,1.86-.23.91.91,0,0,0,.48-.92,1.1,1.1,0,0,0-.09-.49,1,1,0,0,0-.33-.34,2.8,2.8,0,0,0-.66-.27q-.41-.12-1.08-.27a16.15,16.15,0,0,1-2.19-.66,5.26,5.26,0,0,1-1.52-.86,3,3,0,0,1-.9-1.33,6.19,6.19,0,0,1-.29-2,6.43,6.43,0,0,1,.43-2.57,3.73,3.73,0,0,1,1.2-1.57,4.44,4.44,0,0,1,1.84-.79,12.15,12.15,0,0,1,2.35-.21,13,13,0,0,1,2.87.25,13.7,13.7,0,0,1,1.6.47,2,2,0,0,1,.76.54,1.6,1.6,0,0,1,.21.93v2l-3-.16c-.64,0-1.13,0-1.45,0a5.64,5.64,0,0,0-1.57.17.75.75,0,0,0-.53.81.87.87,0,0,0,.5.85,8.11,8.11,0,0,0,1.57.48c.85.23,1.6.45,2.24.67a4.93,4.93,0,0,1,1.56.87,3.35,3.35,0,0,1,.92,1.34,6,6,0,0,1,.3,2.05A6.7,6.7,0,0,1,200,56.9a4,4,0,0,1-1.23,1.64,4.82,4.82,0,0,1-1.89.86,11.22,11.22,0,0,1-2.4.24,15.63,15.63,0,0,1-2.85-.24,11.86,11.86,0,0,1-1.9-.49,1.56,1.56,0,0,1-.75-.59,1.8,1.8,0,0,1-.2-.87Z"/><path class="cls-4" d="M211.92,59.06a13.45,13.45,0,0,1-1.65.4,10.31,10.31,0,0,1-1.63.12,9,9,0,0,1-2.18-.24,3.93,3.93,0,0,1-1.64-.87,4,4,0,0,1-1-1.67,8.1,8.1,0,0,1-.37-2.67V47.38h-.61c-.75,0-1.12-.36-1.12-1.07V43.45h1.92l.24-3.83h3.53c.75,0,1.13.35,1.13,1.06v2.77h2.31c.75,0,1.12.36,1.12,1.07v2.86h-3.43V54c0,1.08.47,1.61,1.43,1.61h.88c.75,0,1.12.36,1.12,1.07Z"/></g></g></svg>